<?xml version="1.0" encoding="utf-8"?>
<!-- Generator: Adobe Illustrator 24.0.2, SVG Export Plug-In . SVG Version: 6.00 Build 0)  -->
<svg version="1.1" id="Livello_1" xmlns="http://www.w3.org/2000/svg" xmlns:xlink="http://www.w3.org/1999/xlink" x="0px" y="0px"
	 viewBox="0 0 18.5 26.4" style="enable-background:new 0 0 18.5 26.4;" xml:space="preserve">
<style type="text/css">
	.st0{fill:#FFFFFF;}
</style>
<path id="icon-pin" class="st0" d="M9.2,0C4.1,0,0,4.1,0,9.2c0,0,0,0,0,0c0,6.9,9.2,17.1,9.2,17.1s9.2-10.2,9.2-17.1
	C18.5,4.1,14.3,0,9.2,0C9.2,0,9.2,0,9.2,0z M9.2,12.5c-1.8,0-3.3-1.5-3.3-3.3c0-1.8,1.5-3.3,3.3-3.3s3.3,1.5,3.3,3.3l0,0
	C12.5,11.1,11.1,12.5,9.2,12.5z"/>
</svg>
