<?xml version="1.0" encoding="utf-8"?>
<!-- Generator: Adobe Illustrator 24.0.2, SVG Export Plug-In . SVG Version: 6.00 Build 0)  -->
<svg version="1.1" id="Livello_1" xmlns="http://www.w3.org/2000/svg" xmlns:xlink="http://www.w3.org/1999/xlink" x="0px" y="0px"
	 viewBox="0 0 26 26" style="enable-background:new 0 0 26 26;" xml:space="preserve">
<style type="text/css">
	.st0{fill:#FFFFFF;}
</style>
<g>
	<path class="st0" d="M13,26C5.8,26,0,20.2,0,13C0,5.8,5.8,0,13,0c7.2,0,13,5.8,13,13C26,20.2,20.2,26,13,26z M13,2
		C6.9,2,2,6.9,2,13s4.9,11,11,11s11-4.9,11-11S19.1,2,13,2z"/>
</g>
<g id="Tracciato_4267">
	<path class="st0" d="M15.8,16.2h-6v-5.8c0-0.3,0.2-0.5,0.5-0.5s0.5,0.2,0.5,0.5v4.8h5c0.3,0,0.5,0.2,0.5,0.5S16,16.2,15.8,16.2z"/>
</g>
</svg>
