<?xml version="1.0" encoding="utf-8"?>
<!-- Generator: Adobe Illustrator 24.0.2, SVG Export Plug-In . SVG Version: 6.00 Build 0)  -->
<svg version="1.1" id="Livello_1" xmlns="http://www.w3.org/2000/svg" xmlns:xlink="http://www.w3.org/1999/xlink" x="0px" y="0px"
	 viewBox="0 0 26 26" style="enable-background:new 0 0 26 26;" xml:space="preserve">
<style type="text/css">
	.st0{fill:#FFFFFF;}
</style>
<g id="icon-calendar">
	<path id="Tracciato_149" class="st0" d="M3.1,8.1v14.8h19.8V8.1H3.1z M21.2,3.1h3.3c0.2,0,0.5,0,0.7,0.1c0.4,0.1,0.7,0.5,0.9,0.9
		c0.1,0.2,0.1,0.4,0.1,0.7v19.8c0,0.2,0,0.5-0.1,0.7c-0.1,0.4-0.5,0.7-0.9,0.9c-0.2,0.1-0.4,0.1-0.7,0.1H1.5c-0.2,0-0.5,0-0.7-0.1
		c-0.4-0.1-0.7-0.5-0.9-0.9c-0.1-0.2-0.1-0.4-0.1-0.7V4.8c0-0.2,0-0.5,0.1-0.7c0.1-0.4,0.5-0.7,0.9-0.9C1,3.1,1.2,3.1,1.5,3.1h3.3
		V1.5c0-0.2,0-0.5,0.1-0.7C5,0.4,5.3,0.1,5.7-0.1c0.4-0.2,0.9-0.2,1.3,0c0.4,0.1,0.7,0.5,0.9,0.9C8,1,8.1,1.2,8.1,1.5v1.7h9.9V1.5
		c0-0.2,0-0.5,0.1-0.7c0.1-0.4,0.5-0.7,0.9-0.9c0.4-0.2,0.9-0.2,1.4,0c0.4,0.1,0.7,0.5,0.9,0.9c0.1,0.2,0.1,0.4,0.1,0.7L21.2,3.1z
		 M19.6,19.6h-3.3v-3.3h3.3V19.6z M14.6,19.6h-3.3v-3.3h3.3V19.6z M19.6,14.6h-3.3v-3.3h3.3V14.6z M14.6,14.6h-3.3v-3.3h3.3V14.6z
		 M9.7,19.6H6.4v-3.3h3.3V19.6z"/>
</g>
</svg>
