<svg xmlns="http://www.w3.org/2000/svg" xmlns:xlink="http://www.w3.org/1999/xlink" width="26.001" height="26.001" viewBox="0 0 26.001 26.001">
  <defs>
    <clipPath id="clip-path">
      <path d="M0,0H26V26H0Z" fill="none"/>
    </clipPath>
  </defs>
  <g id="icon-calendar" clip-path="url(#clip-path)">
    <path id="Rettangolo_557" data-name="Rettangolo 557" d="M0,0H26V26H0Z" fill="none"/>
    <path id="Tracciato_149" data-name="Tracciato 149" d="M3.3,8.243V23.08H23.08V8.243ZM21.431,3.3h3.3a1.874,1.874,0,0,1,.675.118,1.46,1.46,0,0,1,.855.855,1.874,1.874,0,0,1,.118.675V24.728a1.874,1.874,0,0,1-.118.675,1.46,1.46,0,0,1-.855.855,1.874,1.874,0,0,1-.675.118H1.649a1.874,1.874,0,0,1-.675-.118A1.46,1.46,0,0,1,.118,25.4,1.874,1.874,0,0,1,0,24.728V4.946a1.874,1.874,0,0,1,.118-.675,1.46,1.46,0,0,1,.855-.855A1.874,1.874,0,0,1,1.649,3.3h3.3V1.649A1.874,1.874,0,0,1,5.064.974,1.46,1.46,0,0,1,5.919.118a1.981,1.981,0,0,1,1.35,0,1.46,1.46,0,0,1,.855.855,1.874,1.874,0,0,1,.118.675V3.3h9.891V1.649a1.874,1.874,0,0,1,.118-.675,1.46,1.46,0,0,1,.855-.855,1.981,1.981,0,0,1,1.35,0,1.46,1.46,0,0,1,.855.855,1.874,1.874,0,0,1,.118.675ZM19.783,19.783h-3.3v-3.3h3.3Zm-4.946,0h-3.3v-3.3h3.3Zm4.946-4.946h-3.3v-3.3h3.3Zm-4.946,0h-3.3v-3.3h3.3ZM9.891,19.783h-3.3v-3.3h3.3Z" fill="#ff5c5c"/>
  </g>
</svg>
