<svg xmlns="http://www.w3.org/2000/svg" width="26" height="26" viewBox="0 0 26 26">
  <g id="Raggruppa_2503" data-name="Raggruppa 2503" transform="translate(-303 -12)">
    <path id="Tracciato_6712" data-name="Tracciato 6712" d="M1.782,0V-9.864h2.88V0ZM.468-7.74V-9.864H4.662V-7.74Zm2.43-3.1a1.546,1.546,0,0,1-1.2-.423,1.526,1.526,0,0,1-.387-1.071A1.551,1.551,0,0,1,1.7-13.419a1.546,1.546,0,0,1,1.2-.423,1.546,1.546,0,0,1,1.2.423,1.551,1.551,0,0,1,.387,1.089A1.526,1.526,0,0,1,4.1-11.259,1.546,1.546,0,0,1,2.9-10.836Z" transform="translate(313.532 31.842)" fill="#fff"/>
    <g id="Ellisse_72" data-name="Ellisse 72" transform="translate(303 12)" fill="none" stroke="#fff" stroke-width="3">
      <circle cx="13" cy="13" r="13" stroke="none"/>
      <circle cx="13" cy="13" r="11.5" fill="none"/>
    </g>
  </g>
</svg>
