<svg id="instagram-icon-white" xmlns="http://www.w3.org/2000/svg" width="21.769" height="21.768" viewBox="0 0 21.769 21.768">
  <path id="Tracciato_18" data-name="Tracciato 18" d="M23.938,15.4h-6.42A1.905,1.905,0,0,0,15.6,17.319v6.42a1.905,1.905,0,0,0,1.919,1.919h6.42a1.905,1.905,0,0,0,1.919-1.919v-6.42A1.929,1.929,0,0,0,23.938,15.4Zm-3.21,8.08a2.952,2.952,0,1,1,2.952-2.952A2.96,2.96,0,0,1,20.729,23.48Zm3.321-5.35a.849.849,0,1,1,.849-.849A.835.835,0,0,1,24.049,18.13Z" transform="translate(-9.844 -9.644)" fill="#fff"/>
  <circle id="Ellisse_1" data-name="Ellisse 1" cx="1.808" cy="1.808" r="1.808" transform="translate(9.076 9.076)" fill="#fff"/>
  <path id="Tracciato_19" data-name="Tracciato 19" d="M10.884-.2A10.884,10.884,0,1,0,21.768,10.684,10.881,10.881,0,0,0,10.884-.2Zm6.272,14.094a3.055,3.055,0,0,1-3.062,3.062H7.674a3.055,3.055,0,0,1-3.062-3.062V7.474A3.055,3.055,0,0,1,7.674,4.412h6.42a3.055,3.055,0,0,1,3.062,3.062Z" transform="translate(0 0.2)" fill="#fff"/>
</svg>
