<svg xmlns="http://www.w3.org/2000/svg" width="18" height="18" viewBox="0 0 18 18">
  <path id="instagram-icon" d="M4.967,18A4.973,4.973,0,0,1,0,13.033V4.967A4.973,4.973,0,0,1,4.967,0h8.065A4.973,4.973,0,0,1,18,4.967v8.065A4.973,4.973,0,0,1,13.033,18ZM1.6,4.967v8.065a3.373,3.373,0,0,0,3.37,3.37h8.065a3.374,3.374,0,0,0,3.37-3.37V4.967a3.374,3.374,0,0,0-3.37-3.37H4.967A3.374,3.374,0,0,0,1.6,4.967ZM4.362,9A4.638,4.638,0,1,1,9,13.638,4.644,4.644,0,0,1,4.362,9Zm1.6,0A3.041,3.041,0,1,0,9,5.959,3.045,3.045,0,0,0,5.959,9Zm7.047-3.993a1.17,1.17,0,1,1,.827.343A1.179,1.179,0,0,1,13.006,5.007Z" fill="#333"/>
</svg>
