<svg xmlns="http://www.w3.org/2000/svg" viewBox="0 0 59 59" enable-background="new 0 0 59 59"><style type="text/css">.st0{fill:#FFFFFF;}</style><path class="st0" d="M38.2 15.4h-17.4c-2.9 0-5.2 2.3-5.2 5.2v17.4c0 2.9 2.3 5.2 5.2 5.2h17.4c2.9 0 5.2-2.3 5.2-5.2v-17.4c0-2.9-2.4-5.2-5.2-5.2zm-8.7 21.9c-4.4 0-8-3.6-8-8s3.6-8 8-8 8 3.6 8 8-3.6 8-8 8zm9-14.5c-1.3 0-2.3-1-2.3-2.3s1-2.3 2.3-2.3 2.3 1 2.3 2.3-1 2.3-2.3 2.3z"/><circle class="st0" cx="29.5" cy="29.3" r="4.9"/><path class="st0" d="M29.5-.2c-16.3 0-29.5 13.2-29.5 29.5s13.2 29.5 29.5 29.5 29.5-13.2 29.5-29.5-13.2-29.5-29.5-29.5zm17 38.2c0 4.6-3.7 8.3-8.3 8.3h-17.4c-4.6 0-8.3-3.7-8.3-8.3v-17.4c0-4.6 3.7-8.3 8.3-8.3h17.4c4.6 0 8.3 3.7 8.3 8.3v17.4z"/></svg>