<svg xmlns="http://www.w3.org/2000/svg" width="166.491" height="263.58" viewBox="0 0 166.491 263.58">
  <g id="fs8IUo.tif" transform="translate(-453.757 193.193)">
    <g id="Raggruppa_1503" data-name="Raggruppa 1503" transform="translate(453.757 -193.193)">
      <path id="Tracciato_4266" data-name="Tracciato 4266" d="M496.877-193.193v1.432c2.956-.136,5.8.43,8.881-.477a15.347,15.347,0,0,1,7.378-.089c4.426,1.063,8.837.539,13.245.624,2.688.052,5.36.239,8.11-.591a8.131,8.131,0,0,1,5.79.377,7.931,7.931,0,0,0,3.138.248c6.552.017,13.1.008,19.891.008,1.287,1.966,3.135,3.85,3.771,5.977.908,3.041,3.726,5.455,3.88,8.668,2.8,2.48,2.808,5.937,4.615,8.792a65.9,65.9,0,0,1,4.382,8.857c2.1,4.781,4.428,9.485,6.909,14.142a1.56,1.56,0,0,1,.036,1.139c1.8,2.519,5.408,1.462,6.668,3.772l-3.265,3.847c-2.269,0-4.54-.322-6.62.058-7.037,1.288-14.133.543-21.2.679-7.025.135-14.058.03-21.211.03a8.476,8.476,0,0,0-2.217,5.744q.043,20.7.014,41.41l2.335,1.877,1.9-1.468h2.842l1.4,1.144c.043,2.659-2.272,4.138-4.4,5.79l-3.132-1.067v3.309c0,8.943.675,17.93-.214,26.813-.708,7.076-.526,14.109-.688,21.16-.163,7.151-.036,14.307-.036,21.461V15.705l1.912,1.563c-.456,1.127.147,2.339-.718,3.777-1.144,1.9.457,4.025,1.376,5.867a41.368,41.368,0,0,0,5,7.871c2.213,2.686,5.7,4.3,9.15,5.833.509.227,1.049.406,1.839.708,3.177-.153,6.489,1.32,10.04.833,2.053-.282,4.118-.506,6.175-.774s4.056.173,6.252-.624c2.43-.883,5.17.58,7.763,1.05,4.866.88,8.554,3.555,12.577,5.7,2.229,1.187,4.305,2.57,6.36,3.81h10.62l2.823,2.694a55.365,55.365,0,0,1-6.348,1.135A19.984,19.984,0,0,1,600.8,51.5a46.888,46.888,0,0,0-12.076-5.842,25.894,25.894,0,0,0-13.776-.863c-2.184.449-4.582-.3-6.235.542a7.917,7.917,0,0,1-5.731.5c-2.029-.575-4.079-.482-6.072-.932C549.9,43.32,545.611,39.2,541.9,34.5c-1.411-1.785-2.741-3.611-4.5-5.939V44.13a7.035,7.035,0,0,1-1.474.943,10.085,10.085,0,0,1-2.078.211l-3.776-4.02c-1.564,4.257-5.6,6.358-9.845,8.182a21.885,21.885,0,0,1-5.047,1.122,9.3,9.3,0,0,0-6.04,3.591,69.625,69.625,0,0,0-4.724,7.588c-.241.414-.034,1-.034,1.487-1.575,1.288-3.1,2.574-4.679,3.81-1.334,1.043-2.737,2.026-4.529,3.342h-4.449l-2.482-3.112,3-1.688c1.775-.367,4.19-.219,5.81-1.789a40.673,40.673,0,0,0,4.315-5.046,20.63,20.63,0,0,0,2.637-4.464c1-2.48,3.215-4.121,5.349-5.859a8.453,8.453,0,0,1,4.306-1.691c1.743-.244,3.459-.609,5.472-.973,1.108-1.489,4.54-1.539,5.1-4.471a27.7,27.7,0,0,1-3.445.83c-1.23.129-2.5-.031-3.746.042-3.205.188-6.131-.771-9.184-1.267s-6.328-.875-9.424.331a6.174,6.174,0,0,1-1.787.219l-8.414,5.833c-2,.369-3.7.807-5.449.97-1.694.159-3.429.035-5.13.035l-1.272-1.042V44.453c1.042,0,2.2-.3,2.821.049,3.2,1.759,5.752-.125,8.053-1.17,2.734-1.241,4.909-3.3,6.856-4.682,4-1.455,7.7-.919,11.327-1.144a19.956,19.956,0,0,1,7.928,1.054c6.866,2.541,15.844-3.251,15.429-9.208a69.071,69.071,0,0,1,0-8.428c.19-3.6.072-7.3,1.079-10.766a27.082,27.082,0,0,0,.735-7.764c.053-23.507-.011-47.013.078-70.518.013-3.47-.66-6.962.809-10.438,1.07-2.532-1.345-5.062-.783-7.75l1.8-1.474c0-4.919-.113-10.009.025-15.095.219-8.072,1.4-16.119.929-24.212-.165-2.833.415-5.724-1.487-8.611-2.049.33-4.45-.64-6.778.705-.729.421-2.13.066-3.224.066-10.315,0-20.629-.028-30.943.023a19.947,19.947,0,0,0-6.243.6c-1.727.547-4.057-.173-6.4-.352-1.7-3.808-3.228-7.486-4.989-11.087-1.555-3.178-2.876-6.429-4.472-9.6-1.469-2.912-4.123-5.589-3.963-9.016.008-.182-.422-.354-.556-.569-2.549-4.135-3.832-8.66-5.942-12.935-1.46-2.956-2.374-6.094-3.854-9.043a8.966,8.966,0,0,1-.729-5.517c4.788,0,9.45.01,14.112-.012.678,0,1.67.3,1.684-.754Zm3.312,29.92c2.173,7.145,5.537,13.571,8.419,19.853l1.753,2.356c4.665,0,8.867-.031,13.066.014,1.966.02,3.856-.023,5.623-1.536-3.261-6.854-6.588-13.842-9.846-20.687Zm-26.419-.023a3.387,3.387,0,0,0,.131,3.117,106.237,106.237,0,0,1,5.224,11.593,64.69,64.69,0,0,0,3.653,7.331h18.789a3.738,3.738,0,0,0-.021-1.329c-1.051-2.313-2.181-4.6-3.25-6.911-1.119-2.42-2.082-4.893-3.326-7.268-1.187-2.269-1.5-4.947-4.262-6.534Zm82.04,21.444a6.15,6.15,0,0,0-.537-3.351c-2.1-4.266-4.19-8.546-6-12.917-.887-2.141-1.271-4.853-4.074-5.812a35.193,35.193,0,0,1-4.252.61c-4.329.071-8.662.027-13.787.027,3.666,7.429,6.514,14.593,9.981,21.444Zm8.1-.109H580c1.419-.965,1.589-1.786.773-3.04a49.313,49.313,0,0,1-3.229-6.173c-2-4.3-3.923-8.621-5.8-12.77H554.405l-1.139.93c1.438,2.167,1.993,4.6,3.281,6.849,1.768,3.082,2.64,6.5,4.152,9.69C561.478-144.83,561.575-142.775,563.91-141.961Zm-66.5-26.053h17.9l.844-.69c-.416-3.648-3.02-6.436-4.325-9.665s-2.561-6.528-4.827-9.5c-6.292.172-12.42-.157-18.5.176C491.508-181.047,494.407-174.646,497.411-168.014ZM480-187.712H461.379c2.965,6.717,5.56,13.425,9.165,19.634h18.707Zm36.524,1.078c2.495,6.171,5.624,12.107,8.58,17.971,6.312,0,12.226,0,18.141-.009.117,0,.231-.149.547-.365-.215-2.184-1.724-4.078-2.661-6.158-.9-2-2.352-3.767-3.07-5.846a40.477,40.477,0,0,0-3.108-5.892c-5.556-.471-10.924.4-16.307-.6Zm43.361-.427c-6.268,0-11.877,0-17.485.011-.114,0-.248.143-.336.242a.823.823,0,0,0-.132.249q4.374,8.928,8.68,17.716h18.917Z" transform="translate(-453.757 193.193)" fill="#fff"/>
    </g>
  </g>
</svg>
