<svg xmlns="http://www.w3.org/2000/svg" viewBox="0 0 59 59" enable-background="new 0 0 59 59"><style type="text/css">.st0{fill:#FFFFFF;}</style><path class="st0" d="M29.5 0c-16.3 0-29.5 13.2-29.5 29.5s13.2 29.5 29.5 29.5 29.5-13.2 29.5-29.5-13.2-29.5-29.5-29.5zm-9.3 45.8h-7.3v-22h7.3v22zm-.7-26.1c-.8.7-1.8 1.1-3 1.1s-2.2-.4-2.9-1.1c-.8-.7-1.1-1.6-1.1-2.7s.4-2 1.2-2.7 1.8-1.1 3-1.1 2.2.4 3 1.1c.7.7 1.1 1.6 1.1 2.7-.1 1.1-.5 2-1.3 2.7zm27.1 26.1h-7.3v-11.8c0-3.3-1.2-5-3.7-5-.9 0-1.7.3-2.3.8s-1.1 1.2-1.4 1.9c-.1.4-.2 1-.2 1.8v12.3h-7.3c.1-13.3.1-20.7 0-22.1h7.3v3.1c1.5-2.4 3.7-3.6 6.6-3.6 2.5 0 4.6.8 6.1 2.5s2.3 4.1 2.3 7.4l-.1 12.7z"/></svg>