<?xml version="1.0" encoding="utf-8"?>
<!-- Generator: Adobe Illustrator 24.0.2, SVG Export Plug-In . SVG Version: 6.00 Build 0)  -->
<svg version="1.1" id="Livello_1" xmlns="http://www.w3.org/2000/svg" xmlns:xlink="http://www.w3.org/1999/xlink" x="0px" y="0px"
	 viewBox="0 0 155.8 81.5" style="enable-background:new 0 0 155.8 81.5;" xml:space="preserve">
<style type="text/css">
	.st0{fill:#EA5D5F;}
	.st1{fill:#A7A7A6;}
	.st2{fill:#FABB4C;}
	.st3{fill:#212121;}
	.st4{enable-background:new    ;}
	.st5{fill:#7B9EC3;}
</style>
<g>
	<g id="Raggruppa_1554" transform="translate(-278.001 -77.169)">
		<g id="Raggruppa_1552" transform="translate(254.718 3.495)">
			<g id="Raggruppa_1491" transform="translate(2.825)">
				<path id="Tracciato_24" class="st0" d="M27.7,75.6c-3.3,0-6,2.7-6,6c0,3.3,2.7,6,6,6c3.3,0,6-2.7,6-6c0-2.9-2-5.4-4.9-5.9
					C28.5,75.6,28.1,75.6,27.7,75.6z"/>
				<path id="Tracciato_25" class="st1" d="M47,75.6c-3.3,0-6,2.7-6,6c0,3.3,2.7,6,6,6c3.3,0,6-2.7,6-6c0-2.9-2-5.4-4.9-5.9
					C47.8,75.6,47.4,75.6,47,75.6z"/>
				<path id="Tracciato_26" class="st2" d="M66.3,75.6c-3.3,0-6,2.7-6,6c0,3.3,2.7,6,6,6c3.3,0,6-2.7,6-6c0-2.9-2-5.4-4.9-5.9
					C67.1,75.6,66.7,75.6,66.3,75.6z"/>
				<g id="Raggruppa_41" transform="translate(21.303 98.044)">
					<path id="Tracciato_27" class="st3" d="M0-1.9h10.4v2.7h-7v2.5h6.3V6L3.4,6v2.5h7.1v2.7H0V-1.9z"/>
				</g>
				<g id="Raggruppa_42" transform="translate(42.237 98.044)">
					<path id="Tracciato_28" class="st3" d="M9-1.9h3.2v13.2h-3l-6-7.9v7.9H0V-1.9h3L9,6L9-1.9z"/>
				</g>
				<g id="Raggruppa_43" transform="translate(64.129 98.044)">
					<path id="Tracciato_29" class="st3" d="M0-1.9h11.3v2.8H7.3v10.3H3.9V0.9H0L0-1.9z"/>
				</g>
				<g id="Raggruppa_44" transform="translate(85.025 98.044)">
					<path id="Tracciato_30" class="st3" d="M0-1.9h10.4v2.7h-7v2.5h6.3V6L3.4,6v2.5h7.1v2.7H0V-1.9z"/>
				</g>
				<g id="Raggruppa_45" transform="translate(20.458 119.827)">
					<path id="Tracciato_31" class="st3" d="M8.8,1.5C8.3,1.2,7.7,1,7.1,1C6.5,1,5.8,1.2,5.3,1.5C4.7,1.8,4.3,2.3,4,2.9
						C3.4,4.1,3.4,5.6,4,6.8c0.3,0.6,0.7,1,1.3,1.4c0.5,0.3,1.2,0.5,1.8,0.5c0.6,0,1.2-0.2,1.7-0.4C9.4,8,9.9,7.6,10.4,7.1l2,2.2
						c-0.7,0.8-1.6,1.4-2.5,1.8c-2.1,1-4.5,0.9-6.5-0.2c-1-0.6-1.9-1.4-2.5-2.5C0.3,7.3,0,6.1,0,4.9C0,2.4,1.3,0.1,3.4-1
						c2-1.1,4.4-1.2,6.5-0.3c0.9,0.4,1.7,0.9,2.4,1.7l-2,2.4C10,2.2,9.4,1.8,8.8,1.5z"/>
				</g>
				<g id="Raggruppa_46" transform="translate(41.73 119.827)">
					<path id="Tracciato_32" class="st3" d="M10.8-1c2.2,1.2,3.5,3.4,3.5,5.9c0,2.5-1.3,4.8-3.5,6c-2.3,1.2-5,1.2-7.3,0
						c-1.1-0.6-1.9-1.4-2.6-2.5C0.3,7.3,0,6.1,0,4.9C0,2.4,1.3,0.1,3.5-1C5.8-2.2,8.5-2.2,10.8-1L10.8-1z M5.3,1.5
						C4.8,1.9,4.3,2.3,4,2.9C3.4,4.2,3.4,5.6,4,6.9c0.3,0.6,0.8,1.1,1.3,1.4c0.5,0.3,1.2,0.5,1.8,0.5c0.6,0,1.3-0.2,1.8-0.5
						c0.5-0.3,1-0.8,1.3-1.4c0.6-1.2,0.6-2.7,0-3.9C9.9,2.3,9.5,1.9,8.9,1.5C8.4,1.2,7.8,1,7.1,1C6.5,1,5.9,1.2,5.3,1.5z"/>
				</g>
				<g id="Raggruppa_47" transform="translate(65.97 120.034)">
					<path id="Tracciato_33" class="st3" d="M9-1.9h3.2v13.2h-3l-6-7.9v7.9H0V-1.9h3L9,6L9-1.9z"/>
				</g>
				<g id="Raggruppa_48" transform="translate(88.163 119.827)">
					<path id="Tracciato_34" class="st3" d="M8.8,1.5C8.3,1.2,7.7,1,7.1,1C6.5,1,5.8,1.2,5.3,1.5C4.7,1.8,4.3,2.3,4,2.9
						C3.4,4.1,3.4,5.6,4,6.8c0.3,0.6,0.7,1,1.3,1.4c0.5,0.3,1.2,0.5,1.8,0.5c0.6,0,1.2-0.2,1.7-0.4C9.4,8,9.9,7.6,10.4,7.1l2,2.2
						c-0.7,0.8-1.6,1.4-2.5,1.8c-2.1,1-4.5,0.9-6.5-0.2c-1-0.6-1.9-1.4-2.5-2.5C0.3,7.3,0,6.1,0,4.9C0,2.4,1.3,0.1,3.4-1
						c2-1.1,4.4-1.2,6.5-0.3c0.9,0.4,1.7,0.9,2.4,1.7l-2,2.4C10,2.2,9.4,1.8,8.8,1.5z"/>
				</g>
				<g id="Raggruppa_49" transform="translate(110.281 120.034)">
					<path id="Tracciato_35" class="st3" d="M0-1.9h10.4v2.7h-7v2.5h6.3V6L3.4,6v2.5h7.1v2.7H0V-1.9z"/>
				</g>
				<g id="Raggruppa_50" transform="translate(131.214 120.034)">
					<path id="Tracciato_36" class="st3" d="M7.9,11.3L6,7.6H3.4v3.6H0V-1.9h5.9C7.4-2,8.8-1.6,10-0.7c1,0.9,1.5,2.1,1.4,3.4
						c0,0.9-0.2,1.8-0.6,2.6C10.4,6,9.8,6.6,9.1,7l2.7,4.3L7.9,11.3z M3.4,4.9h2.5c0.6,0,1.2-0.2,1.6-0.5C8,4,8.2,3.4,8.1,2.8
						c0-0.6-0.2-1.1-0.6-1.5C7.1,1,6.5,0.8,5.9,0.8H3.4L3.4,4.9z"/>
				</g>
				<g id="Raggruppa_51" transform="translate(151.941 120.034)">
					<path id="Tracciato_37" class="st3" d="M0-1.9h11.3v2.8H7.3v10.3H3.9V0.9H0L0-1.9z"/>
				</g>
				<g id="Raggruppa_52" transform="translate(172.838 120.034)">
					<path id="Tracciato_38" class="st3" d="M0-1.9h3.4v13.2H0V-1.9z"/>
				</g>
				<g id="Raggruppa_60" transform="translate(20.949 148.333)">
					<path id="Tracciato_39" class="st3" d="M4.2,0.1c0,0.6-0.2,1.2-0.7,1.6C3,2,2.3,2.2,1.6,2.2H0.8v2.6H0v-6.7h1.8
						C3.4-1.9,4.2-1.3,4.2,0.1z M0.8,1.5h0.7c0.5,0,1-0.1,1.5-0.3c0.3-0.3,0.5-0.7,0.5-1.1c0-0.4-0.1-0.8-0.4-1
						C2.6-1.1,2.1-1.3,1.6-1.2H0.8L0.8,1.5z"/>
				</g>
				<g id="Raggruppa_61" transform="translate(29.15 148.333)">
					<path id="Tracciato_40" class="st3" d="M3.7,4.8H0v-6.7h3.7v0.7h-3V1h2.8v0.7H0.8v2.5h3V4.8z"/>
				</g>
				<g id="Raggruppa_62" transform="translate(36.483 148.236)">
					<path id="Tracciato_41" class="st3" d="M4.2,3.1c0,0.5-0.2,1.1-0.6,1.4C3.1,4.9,2.4,5,1.8,5C1.2,5,0.6,4.9,0,4.7V3.9
						c0.3,0.1,0.6,0.2,0.9,0.3c0.3,0.1,0.6,0.1,1,0.1C2.3,4.3,2.7,4.2,3,4c0.3-0.2,0.4-0.5,0.4-0.8c0-0.2,0-0.4-0.1-0.6
						C3.2,2.4,3,2.3,2.8,2.2C2.5,2,2.2,1.9,1.8,1.8C1.3,1.6,0.9,1.4,0.5,1C0.2,0.7,0.1,0.2,0.1-0.2c0-0.5,0.2-0.9,0.6-1.2
						c0.4-0.3,1-0.5,1.5-0.5c0.6,0,1.3,0.1,1.8,0.4L3.8-0.9C3.3-1.1,2.7-1.2,2.2-1.2c-0.3,0-0.7,0.1-1,0.3C1-0.8,0.9-0.5,0.9-0.2
						c0,0.2,0,0.4,0.1,0.6c0.1,0.2,0.3,0.3,0.4,0.4C1.7,0.9,2,1.1,2.4,1.2c0.5,0.2,1,0.4,1.5,0.8C4.1,2.3,4.2,2.7,4.2,3.1z"/>
				</g>
				<g id="Raggruppa_63" transform="translate(43.697 148.306)">
					<path id="Tracciato_42" class="st3" d="M5.1,4.8L4.3,2.7H1.6L0.8,4.8H0l2.7-6.7h0.7l2.6,6.7H5.1z M4.1,2L3.3-0.1
						C3.2-0.3,3.1-0.7,3-1c-0.1,0.3-0.2,0.7-0.3,1L1.9,2H4.1z"/>
				</g>
				<g id="Raggruppa_64" transform="translate(53.111 148.333)">
					<path id="Tracciato_43" class="st3" d="M0.8,2v2.8H0v-6.7h1.8C2.5-2,3.1-1.8,3.7-1.4C4.1-1.1,4.3-0.5,4.2,0
						c0,0.8-0.5,1.6-1.3,1.8l1.8,3H3.8L2.2,2L0.8,2z M0.8,1.3h1.1c0.4,0,0.9-0.1,1.2-0.3c0.3-0.3,0.4-0.6,0.4-1c0-0.4-0.1-0.7-0.4-1
						C2.7-1.2,2.2-1.3,1.8-1.2h-1V1.3z"/>
				</g>
				<g id="Raggruppa_65" transform="translate(61.115 148.228)">
					<path id="Tracciato_44" class="st3" d="M6.2,1.6c0.1,0.9-0.2,1.8-0.8,2.5C4.8,4.7,3.9,5.1,3.1,5C2.2,5.1,1.4,4.7,0.8,4.1
						C0.2,3.4-0.1,2.5,0,1.5C-0.1,0.6,0.2-0.3,0.8-1c0.6-0.6,1.4-1,2.3-0.9c0.9,0,1.7,0.3,2.3,0.9C5.9-0.3,6.2,0.6,6.2,1.6z
						 M0.8,1.6C0.8,2.3,1,3,1.4,3.6c0.9,0.9,2.4,0.9,3.4,0c0,0,0,0,0,0c0.8-1.3,0.8-2.9,0-4.1C4.4-1,3.7-1.3,3.1-1.2
						C2.4-1.3,1.8-1,1.4-0.5C1,0.1,0.8,0.8,0.8,1.6L0.8,1.6z"/>
				</g>
			</g>
		</g>
	</g>
	<g class="st4">
		<path class="st5" d="M145.3,74.9c-0.7,0.3-1.5,0.3-2.2,0.1c-1.1-0.2-1.8-1-2.6-1.7c-1.1-0.9-2.4-1.5-3.8-1.5
			c-0.5,0-1.1,0.1-1.6,0.2c-1.5,0.3-3,0.3-4.3-0.5c-1.1-0.7-1.8-1.7-2.4-2.8c-0.2-0.5-0.5-0.9-0.8-1.5c0,0.4,0,0.7,0,0.9
			c0,1.1,0,2.1,0,3.2c0,0.5-0.3,0.7-0.9,0.9c-0.2-0.4-0.5-0.9-0.7-1.3c-0.5,0.6-0.9,1.3-1.6,1.9c-0.5,0.5-1.3,0.6-1.9,1
			c-0.5,0.3-0.9,0.7-1.2,1.1c-0.4,0.7-0.7,1.5-1.1,2.2c-0.3,0.6-0.7,1.2-1.2,1.7c-0.3,0.3-0.8,0.5-1.3,0.5c-0.7,0.1-1-0.4-0.9-1.2
			c0.2-0.1,0.5-0.2,0.7-0.2c0.8,0,1.1-0.5,1.4-1c0.5-0.9,1-1.9,1.4-2.8c0.5-1,1.4-1.6,2.5-1.7c0.8-0.1,1.2-0.7,1.6-1.3
			c-0.6,0.1-1.1,0.2-1.6,0.1c-0.8-0.1-1.7-0.2-2.5-0.5c-1-0.3-1.7,0.2-2.4,0.7c-0.2,0.2-0.4,0.4-0.6,0.6c-0.7,0.9-1.7,1.1-2.8,1
			c-0.5,0-0.8-0.4-0.8-1c0.1-0.1,0.2-0.1,0.3-0.2c0.1,0,0.1,0,0.1,0c0.9,0.3,1.7,0.1,2.3-0.7c1.1-1.3,2.4-1.7,4-1.5
			c0.7,0.1,1.3,0.3,2,0.4c0.4,0,0.8,0,1.1-0.2c1-0.6,1.7-1.5,1.7-2.8c0-1.1-0.1-2.2,0-3.3c0.4-3,0.1-6,0.2-9
			c0.1-4.2,0.1-8.3,0.2-12.5c0-2.5,0-5,0-7.6c0-0.2,0-0.5-0.1-0.7c-0.3-0.6-0.1-0.9,0.4-1.2c0-0.2,0-0.5,0-0.7c0-1.6,0-3.3,0-4.9
			c0-2.2,0.1-4.3,0.1-6.5c0-0.3,0-0.6,0-0.9c-0.1-0.3-0.2-0.5-0.3-0.9c-0.2,0-0.4-0.1-0.6-0.1c-2.1,0-4.2,0-6.2,0.1
			c-1.3,0-2.7,0.1-4,0.2c-0.8,0-0.9-0.1-1.1-0.8c-0.4-1.3-0.9-2.5-1.3-3.8c-0.5-1.5-1-3-1.5-4.5c-0.3-0.9-0.6-1.7-0.9-2.6
			c-0.5-1.5-1-3-1.5-4.5c-0.1-0.2,0-0.5,0-0.8c0.3,0,0.5-0.1,0.7-0.1c1.3,0,2.6,0,3.9,0c0.5,0,1-0.1,1.5-0.2c0.2,0,0.4,0,0.6,0
			c1.2,0.1,2.3,0.2,3.5,0.2c0.6,0,1.2-0.1,1.9-0.2c0.2,0,0.4,0,0.7,0c0.7,0.1,1.3,0.1,2,0.2c0.4,0,0.7,0.1,1.1,0.1
			c0.6,0,1.3,0.1,1.9-0.2C127,2,127.4,2,127.6,2c0.5,0.1,1.1,0.3,1.6,0.3c1.2,0,2.4,0,3.6,0c0.2,0,0.4,0,0.6,0
			c0.7,2.1,1.4,4.1,2.2,6.2c0.5,1.4,1.1,2.8,1.6,4.2c0.4,1.1,0.7,2.2,1.1,3.3c0.2,0.7,0.6,1,1.5,0.9c-0.1,0.5-0.2,0.8-0.3,1.2
			c-0.1,0.4-0.5,0.5-0.9,0.5c-2.5,0.1-5.1,0.1-7.6,0.2c-0.9,0-1.8,0.2-2.8,0.2c-0.1,0.5-0.2,1-0.2,1.6c0,3.8,0,7.6,0,11.4
			c0,0.3,0,0.6,0,0.9c0.1,0.1,0.2,0.2,0.3,0.3c0.4-0.2,0.8-0.3,1.2-0.5c0.3,0.8,0,1.4-0.5,1.9c-0.3,0-0.5,0-0.9,0c0,0.3,0,0.5,0,0.7
			c0,4,0,8.1,0,12.1c0,5.1-0.1,10.2-0.2,15.3c0,0.2,0,0.5,0,0.7c0.1,0.1,0.2,0.2,0.4,0.3c0,0.4,0.1,0.8,0,1.1
			c-0.3,0.6,0,1.2,0.1,1.7c0.3,1.1,0.8,2.2,1.7,3.1c0.6,0.6,1.3,1.1,2.2,1.3c1.4,0.4,2.8,0.1,4.2-0.2c1-0.2,2,0.1,2.8,0.6
			c1,0.6,2,1.4,3,2.1c0.6,0.5,1.3,0.6,2,0.4C145.1,73.8,145.4,74,145.3,74.9z M125.7,17c-0.8-2.1-1.5-4.2-2.2-6.2
			c-1.4,0-2.8,0-4.2,0c0.7,2.1,1.4,4.2,2,6.2C122.8,17,124.2,17,125.7,17z M113.4,11c0.7,2,1.4,3.9,2,5.8c0.1,0.3,0.3,0.5,0.6,0.5
			c1.1-0.1,2.3-0.1,3.4-0.2c0.1,0,0.1-0.1,0.3-0.1c-0.8-2.1-1.4-4.2-2.3-6.2C116,10.8,114.7,10.9,113.4,11z M131.6,16.8
			c0-0.2-0.1-0.4-0.1-0.5c-0.6-1.7-1.2-3.3-1.8-5c-0.1-0.4-0.3-0.7-0.7-0.6c-1.2,0-2.4,0-3.6,0c0.7,2.1,1.4,4.1,2.1,6.1
			C128.8,16.8,130.1,16.8,131.6,16.8z M130.9,10.6c0.7,2.1,1.5,4.2,2.1,6.2c1.4,0,2.7,0,4.1,0c-0.8-2.1-1.5-4.2-2.3-6.2
			C133.6,10.6,132.3,10.6,130.9,10.6z M113,9.5c1.4-0.2,2.7,0.2,4-0.3c-0.7-1.9-1.4-3.9-2-5.7c-1.4-0.1-2.7-0.1-4.1-0.2
			C111.6,5.5,112.3,7.5,113,9.5z M116.9,3.5c0.6,2,1.3,3.8,1.8,5.7c1.4,0,2.8,0,4.3,0c-0.7-1.9-1.4-3.8-2.1-5.7
			C119.6,3.5,118.3,3.5,116.9,3.5z M128.9,9c-0.7-1.9-1.3-3.6-1.9-5.4c-1.3,0-2.6,0-4.1,0c0.7,1.9,1.3,3.8,1.9,5.6
			C126.3,9.2,127.5,9.1,128.9,9z M132.4,3.7c-1.3,0-2.6,0-3.9,0c0.7,1.9,1.3,3.7,1.9,5.4c1.4,0,2.7,0,4,0
			C133.7,7.2,133,5.4,132.4,3.7z"/>
	</g>
</g>
</svg>
