<svg xmlns="http://www.w3.org/2000/svg" width="16.668" height="17.767" viewBox="0 0 16.668 17.767">
  <g id="newsletter-icon" transform="translate(-195.65 -767.9)">
    <g id="Group_44" data-name="Group 44" transform="translate(195.75 768)">
      <g id="email-action-at">
        <g id="Shape_171" data-name="Shape 171" transform="translate(2.196)">
          <path id="Tracciato_5562" data-name="Tracciato 5562" d="M210.277,777.976a.549.549,0,0,1-.549-.549v-7.78a.55.55,0,0,0-.549-.549H200.4a.55.55,0,0,0-.549.549v7.78a.549.549,0,0,1-1.1,0v-7.78A1.649,1.649,0,0,1,200.4,768h8.783a1.649,1.649,0,0,1,1.647,1.647v7.78A.549.549,0,0,1,210.277,777.976Z" transform="translate(-198.75 -768)" fill="#fff" stroke="#fff" stroke-width="0.2"/>
        </g>
        <g id="Shape_172" data-name="Shape 172" transform="translate(0 7.725)">
          <path id="Tracciato_5563" data-name="Tracciato 5563" d="M210.571,788.4H197.4a1.649,1.649,0,0,1-1.647-1.647v-7.1a1.1,1.1,0,0,1,1.78-.86l5.439,4.313a1.643,1.643,0,0,0,2.032,0l5.437-4.313a1.1,1.1,0,0,1,1.78.86v7.1A1.649,1.649,0,0,1,210.571,788.4Zm-13.723-8.745v7.1a.55.55,0,0,0,.549.549h13.174a.55.55,0,0,0,.549-.549v-7.1h0l-5.439,4.314a2.737,2.737,0,0,1-3.392,0Zm13.931-.43h0Z" transform="translate(-195.75 -778.554)" fill="#fff" stroke="#fff" stroke-width="0.2"/>
        </g>
        <g id="Shape_173" data-name="Shape 173" transform="translate(4.388 2.195)">
          <path id="Tracciato_5564" data-name="Tracciato 5564" d="M205.585,778.688a3.844,3.844,0,1,1,3.849-3.846.549.549,0,1,1-1.1,0,2.745,2.745,0,1,0-1.83,2.589.549.549,0,0,1,.366,1.035A3.866,3.866,0,0,1,205.585,778.688Z" transform="translate(-201.745 -770.999)" fill="#fff" stroke="#fff" stroke-width="0.2"/>
        </g>
        <g id="Oval_9" data-name="Oval 9" transform="translate(6.587 4.391)">
          <path id="Tracciato_5565" data-name="Tracciato 5565" d="M206.4,777.294a1.647,1.647,0,1,1,1.647-1.647A1.649,1.649,0,0,1,206.4,777.294Zm0-2.2a.549.549,0,1,0,.549.549A.55.55,0,0,0,206.4,775.1Z" transform="translate(-204.75 -774)" fill="#fff" stroke="#fff" stroke-width="0.2"/>
        </g>
        <g id="Shape_174" data-name="Shape 174" transform="translate(8.783 5.489)">
          <path id="Tracciato_5566" data-name="Tracciato 5566" d="M209.4,777.7a1.649,1.649,0,0,1-1.647-1.647.549.549,0,1,1,1.1,0,.549.549,0,1,0,1.1,0,.549.549,0,1,1,1.1,0A1.649,1.649,0,0,1,209.4,777.7Z" transform="translate(-207.75 -775.5)" fill="#fff" stroke="#fff" stroke-width="0.2"/>
        </g>
      </g>
    </g>
  </g>
</svg>
