<svg xmlns="http://www.w3.org/2000/svg" width="32.041" height="36.618" viewBox="0 0 32.041 36.618">
  <g id="pdf.icon" transform="translate(-32)">
    <path id="Tracciato_6763" data-name="Tracciato 6763" d="M62.017,7.132,56.91,2.023A7.973,7.973,0,0,0,52.026,0H34.861A2.869,2.869,0,0,0,32,2.861v30.9a2.869,2.869,0,0,0,2.861,2.861H61.18a2.869,2.869,0,0,0,2.861-2.861V12.015A7.947,7.947,0,0,0,62.017,7.132Z" fill="#ef4834"/>
    <path id="Tracciato_6764" data-name="Tracciato 6764" d="M91.464,63.469a.583.583,0,0,1-.572.572H64.572A.581.581,0,0,1,64,63.469v-30.9A.579.579,0,0,1,64.572,32H81.737a3.121,3.121,0,0,1,.572.061v9.1H91.4a2.859,2.859,0,0,1,.064.572V63.472Z" transform="translate(-29.711 -29.711)" fill="#fff"/>
    <path id="Tracciato_6765" data-name="Tracciato 6765" d="M108.717,105.255a2.213,2.213,0,0,1-.851.15,9.993,9.993,0,0,1-3.512-1.066c.594-.043,1.13-.064,1.616-.064a6.225,6.225,0,0,1,2.017.222c.865.215.873.665.73.758Zm-15.384.136c.343-.6.694-1.237,1.051-1.917a35.881,35.881,0,0,0,1.838-4.019,13.377,13.377,0,0,0,3.04,3.776c.15.129.308.25.479.379A39.933,39.933,0,0,0,93.333,105.391Zm2.846-15.656c.486,0,.765,1.22.787,2.372a4.853,4.853,0,0,1-.579,2.546,12.335,12.335,0,0,1-.408-3.183S95.958,89.735,96.179,89.735Zm-9.541,21.971a10.631,10.631,0,0,1,2.975-3.562c.1-.079.35-.315.579-.529C88.512,110.3,87.382,111.37,86.639,111.706Zm22.543-8.032c-.486-.479-1.573-.73-3.218-.751a27.008,27.008,0,0,0-3.869.279,9.984,9.984,0,0,1-1.8-1.237,13.15,13.15,0,0,1-3.233-5.028c.043-.186.086-.343.122-.508a32.356,32.356,0,0,0,.565-5.886,1.59,1.59,0,0,0-.1-.422l-.064-.179a1.391,1.391,0,0,0-1.273-.971l-.379-.012h-.007a1.435,1.435,0,0,0-1.466.918c-.472,1.738.014,4.327.894,7.681l-.229.551c-.629,1.531-1.416,3.075-2.11,4.434l-.093.179c-.73,1.43-1.395,2.646-2,3.676l-.622.329c-.043.029-1.109.586-1.359.737-2.117,1.266-3.525,2.7-3.758,3.848a.951.951,0,0,0,.358,1.044l.6.3a1.837,1.837,0,0,0,.817.193c1.509,0,3.261-1.874,5.672-6.086a56.407,56.407,0,0,1,8.747-2.081,15.009,15.009,0,0,0,6.365,2.024,2.855,2.855,0,0,0,.751-.086,1.236,1.236,0,0,0,.744-.508,2.673,2.673,0,0,0,.293-1.817,1.212,1.212,0,0,0-.358-.622Z" transform="translate(-49.36 -82.598)" fill="#ef4834"/>
    <path id="Tracciato_6766" data-name="Tracciato 6766" d="M357.514,51.708a2.817,2.817,0,0,1,.329.408H352V46.27a3.142,3.142,0,0,1,.408.332Z" transform="translate(-297.114 -42.961)" fill="#fff"/>
  </g>
</svg>
