<?xml version="1.0" encoding="utf-8"?>
<!-- Generator: Adobe Illustrator 24.0.2, SVG Export Plug-In . SVG Version: 6.00 Build 0)  -->
<svg version="1.1" id="uk_flag" xmlns="http://www.w3.org/2000/svg" xmlns:xlink="http://www.w3.org/1999/xlink" x="0px" y="0px"
	 viewBox="0 0 25 25" style="enable-background:new 0 0 25 25;" xml:space="preserve">
<style type="text/css">
	.st0{clip-path:url(#SVGID_2_);}
	.st1{clip-path:url(#SVGID_4_);}
	.st2{fill:#012169;}
	.st3{fill:#FFFFFF;}
	.st4{clip-path:url(#SVGID_6_);}
	.st5{fill:#C8102E;}
</style>
<g>
	<defs>
		<circle id="SVGID_1_" cx="12.5" cy="12.5" r="12.5"/>
	</defs>
	<clipPath id="SVGID_2_">
		<use xlink:href="#SVGID_1_"  style="overflow:visible;"/>
	</clipPath>
	<g id="Gruppo_di_maschere_1" class="st0">
		<g id="Raggruppa_32" transform="translate(-12.054 0)">
			<g>
				<defs>
					<rect id="SVGID_3_" x="0" y="0" width="49.1" height="25"/>
				</defs>
				<clipPath id="SVGID_4_">
					<use xlink:href="#SVGID_3_"  style="overflow:visible;"/>
				</clipPath>
				<g id="Raggruppa_31" class="st1">
					<g id="Raggruppa_30" transform="translate(-1.26 -2.095)">
						<g id="Raggruppa_23" transform="translate(1.103 2.206)">
							<path id="Tracciato_112" class="st2" d="M0,0v24.7h49.3V0H0z"/>
						</g>
						<g id="Raggruppa_24">
							<path id="Tracciato_113" d="M1.1,2.2l49.3,24.7 M50.4,2.2L1.1,26.9"/>
							<path id="Tracciato_114" class="st3" d="M49.3,29.1L25.8,17.3L2.2,29.1L0,24.7l20.3-10.1L0,4.4L2.2,0l23.6,11.8L49.3,0
								l2.2,4.4L31.3,14.5l20.3,10.1L49.3,29.1z"/>
						</g>
						<g id="Raggruppa_27" transform="translate(1.103 2.206)">
							<g>
								<defs>
									<polygon id="SVGID_5_" points="24.7,12.3 49.3,12.3 49.3,24.7 0,24.7 0,0 49.3,0 									"/>
								</defs>
								<clipPath id="SVGID_6_">
									<use xlink:href="#SVGID_5_"  style="overflow:visible;"/>
								</clipPath>
								<g id="Raggruppa_26" class="st4">
									<g id="Raggruppa_25" transform="translate(-0.735 -1.471)">
										<path id="Tracciato_115" d="M0.7,1.5l49.3,24.7 M50.1,1.5L0.7,26.1"/>
										<path id="Tracciato_116" class="st5" d="M49.3,27.6l-23.9-12l-23.9,12L0,24.7l21.7-10.9L0,2.9L1.5,0l23.9,12L49.3,0
											l1.5,2.9L29.1,13.8l21.7,10.9L49.3,27.6z"/>
									</g>
								</g>
							</g>
						</g>
						<g id="Raggruppa_28" transform="translate(1.103 2.206)">
							<path id="Tracciato_118" d="M24.7,0v24.7 M0,12.3h49.3"/>
							<path id="Tracciato_119" class="st3" d="M28.8,24.7h-8.2v-8.2H0V8.2h20.6V0h8.2v8.2h20.6v8.2H28.8V24.7z"/>
						</g>
						<g id="Raggruppa_29" transform="translate(1.103 2.206)">
							<path id="Tracciato_120" d="M24.7,0v24.7 M0,12.3h49.3"/>
							<path id="Tracciato_121" class="st5" d="M27.1,24.7h-4.9v-9.9H0V9.9h22.2V0h4.9v9.9h22.2v4.9H27.1L27.1,24.7z"/>
						</g>
					</g>
				</g>
			</g>
		</g>
	</g>
</g>
</svg>
